<svg xmlns="http://www.w3.org/2000/svg" fill="none" viewBox="0 0 341 164">
<g clip-path="url(#clip0_28_252)">
<path d="M37.7584 163.193L37.1732 163.058C43.6981 133.186 60.0955 106.059 83.345 86.6748C100.922 72.0425 121.828 62.2563 144.093 58.2377C166.359 54.2192 189.251 56.1004 210.615 63.7043C231.98 71.3082 251.113 84.3846 266.213 101.702C281.313 119.02 291.883 140.009 296.929 162.693L296.344 162.83C282.532 100.397 229.382 56.7935 167.091 56.7935C105.617 56.7935 51.2249 101.541 37.7584 163.193Z" fill="#3F3D56"/>
<path d="M315.358 148.974L316.257 155.766L309.959 156.384L310.859 148.047L315.358 148.974Z" fill="#E1A7B0"/>
<path d="M285.666 55.73C285.666 55.73 286.266 64.0663 286.266 64.3751C286.266 64.6838 282.067 85.9878 282.067 85.9878C282.067 85.9878 276.069 97.7205 282.067 97.4117C288.066 97.103 286.266 86.2966 286.266 86.2966L292.564 68.3889L289.865 55.73H285.666Z" fill="#E1A7B0"/>
<path d="M295.563 148.974L294.664 155.766L300.962 156.384L300.062 148.047L295.563 148.974Z" fill="#E1A7B0"/>
<path d="M288.665 85.3703L287.166 87.5316C287.166 87.5316 286.266 96.7942 287.166 99.8817C288.066 102.969 289.865 117.172 289.865 118.098C289.865 119.024 290.165 119.642 289.865 119.951C289.565 120.259 288.665 120.259 289.265 120.877C289.865 121.494 289.865 123.347 289.865 123.347V124.891L293.764 147.739C293.764 147.739 291.365 150.517 293.164 150.517C294.963 150.517 301.562 150.517 301.262 147.43L300.662 147.121C300.662 147.121 299.762 126.743 300.062 125.817C300.362 124.891 300.062 123.038 300.062 123.038C300.062 123.038 299.462 122.112 300.062 121.803C300.662 121.494 300.662 119.024 300.662 119.024L303.361 100.191C303.361 100.191 305.76 112.849 307.26 114.084C308.759 115.319 308.46 118.407 308.46 118.407L309.659 145.577C309.659 145.577 308.46 148.665 309.659 149.282C310.859 149.9 315.957 152.061 316.257 148.974C316.557 145.886 318.057 119.024 318.057 117.789C318.057 116.554 317.757 115.937 318.057 115.011C318.357 114.084 317.757 114.084 318.057 114.084C318.357 114.084 317.457 113.158 317.457 112.541V97.4117C317.457 97.4117 317.757 94.3242 318.057 93.7067C318.357 93.0892 317.757 92.4717 318.057 91.5454C318.357 90.6191 317.457 87.5316 317.457 87.5316L303.961 83.8266L288.665 85.3703Z" fill="#4E4A88"/>
<path d="M299.162 154.531C299.162 154.531 300.662 152.987 298.562 152.987C297.215 153.016 295.887 153.331 294.664 153.914L293.164 159.471C293.164 159.471 287.016 164.566 293.914 163.948C300.812 163.331 299.762 163.794 299.762 163.794C299.762 163.794 301.861 163.176 302.161 162.559C302.461 161.941 301.562 152.987 301.562 152.987C301.562 152.987 300.662 155.457 299.162 154.531Z" fill="#2F2E41"/>
<path d="M312.059 154.531C312.059 154.531 310.559 152.987 312.658 152.987C314.006 153.016 315.334 153.331 316.557 153.914L318.057 159.471C318.057 159.471 324.205 164.566 317.307 163.948C310.409 163.331 310.559 163.794 310.559 163.794C310.559 163.794 308.46 163.176 308.16 162.559C307.86 161.941 309.659 152.987 309.659 152.987C309.659 152.987 310.559 155.457 312.059 154.531Z" fill="#2F2E41"/>
<path d="M88.4871 54.7827H85.8171V163.357H88.4871V54.7827Z" fill="#3F3D56"/>
<path d="M113.128 68.6192C113.298 106.585 87.3522 137.486 87.3522 137.486C87.3522 137.486 61.1306 106.832 60.9607 68.8667C60.7907 30.901 86.7367 0 86.7367 0C86.7367 0 112.958 30.6535 113.128 68.6192Z" fill="#419D78"/>
<path d="M274.27 118.407H67.6302V163.485H274.27V118.407Z" fill="#F2F2F2"/>
<path d="M61.0321 123.347L83.5255 74.8727H263.173L279.968 123.347H61.0321Z" fill="#3F3D56"/>
<path d="M200.491 77.9603H117.116V106.366H200.491V77.9603Z" fill="#F2F2F2"/>
<path d="M122.514 54.8037L109.318 83.2091H208.289L200.491 54.8037H122.514Z" fill="#3F3D56"/>
<path d="M190.294 127.361H124.464V163.485H190.294V127.361Z" fill="#CCCCCC"/>
<path d="M110.817 128.596H75.7278V163.485H110.817V128.596Z" fill="#CCCCCC"/>
<path d="M219.836 130.757H201.691V163.485H219.836V130.757Z" fill="#3F3D56"/>
<path d="M341 163.331H0V163.948H341V163.331Z" fill="white"/>
<path d="M55.7175 91.7179H53.9556V163.365H55.7175V91.7179Z" fill="#3F3D56"/>
<path d="M71.978 100.849C72.0902 125.902 54.9686 146.293 54.9686 146.293C54.9686 146.293 37.6652 126.065 37.553 101.012C37.4409 75.9586 54.5624 55.5673 54.5624 55.5673C54.5624 55.5673 71.8659 75.7953 71.978 100.849Z" fill="#419D78"/>
<path opacity="0.1" d="M71.978 100.849C72.0902 125.902 54.9686 146.293 54.9686 146.293C54.9686 146.293 37.6652 126.065 37.553 101.012C37.4409 75.9586 54.5624 55.5673 54.5624 55.5673C54.5624 55.5673 71.8659 75.7953 71.978 100.849Z" fill="black"/>
<path d="M32.8127 91.7179H31.0508V163.365H32.8127V91.7179Z" fill="#3F3D56"/>
<path d="M49.0732 100.849C49.1853 125.902 32.0638 146.293 32.0638 146.293C32.0638 146.293 14.7603 126.065 14.6482 101.012C14.536 75.9586 31.6576 55.5673 31.6576 55.5673C31.6576 55.5673 48.961 75.7953 49.0732 100.849Z" fill="#419D78"/>
<path d="M248.327 132.61H239.48V141.1H248.327V132.61Z" fill="#3F3D56"/>
<path d="M260.174 132.61H251.326V141.1H260.174V132.61Z" fill="#3F3D56"/>
<path d="M248.327 144.188H239.48V152.987H248.327V144.188Z" fill="#3F3D56"/>
<path d="M260.174 144.188H251.326V152.987H260.174V144.188Z" fill="#3F3D56"/>
<path d="M131.687 85.7328H124.763V92.3777H131.687V85.7328Z" fill="#3F3D56"/>
<path d="M140.959 85.7328H134.035V92.3777H140.959V85.7328Z" fill="#3F3D56"/>
<path d="M131.687 94.794H124.763V101.681H131.687V94.794Z" fill="#3F3D56"/>
<path d="M140.959 94.794H134.035V101.681H140.959V94.794Z" fill="#3F3D56"/>
<path d="M183.572 85.7328H176.648V92.3777H183.572V85.7328Z" fill="#3F3D56"/>
<path d="M192.843 85.7328H185.919V92.3777H192.843V85.7328Z" fill="#3F3D56"/>
<path d="M183.572 94.794H176.648V101.681H183.572V94.794Z" fill="#3F3D56"/>
<path d="M192.843 94.794H185.919V101.681H192.843V94.794Z" fill="#3F3D56"/>
<path d="M157.78 85.7328H150.856V92.3777H157.78V85.7328Z" fill="#3F3D56"/>
<path d="M167.051 85.7328H160.127V92.3777H167.051V85.7328Z" fill="#3F3D56"/>
<path d="M157.78 94.794H150.856V101.681H157.78V94.794Z" fill="#3F3D56"/>
<path d="M167.051 94.794H160.127V101.681H167.051V94.794Z" fill="#3F3D56"/>
<path d="M210.099 134.073H205.74V138.257H210.099V134.073Z" fill="#F2F2F2"/>
<path d="M215.937 134.073H211.577V138.257H215.937V134.073Z" fill="#F2F2F2"/>
<path d="M210.099 139.778H205.74V144.114H210.099V139.778Z" fill="#F2F2F2"/>
<path d="M215.937 139.778H211.577V144.114H215.937V139.778Z" fill="#F2F2F2"/>
<path d="M217.436 150.672C218.099 150.672 218.636 150.119 218.636 149.437C218.636 148.755 218.099 148.202 217.436 148.202C216.774 148.202 216.237 148.755 216.237 149.437C216.237 150.119 216.774 150.672 217.436 150.672Z" fill="#F2F2F2"/>
<path d="M190.444 131.22H124.464V131.838H190.444V131.22Z" fill="#F2F2F2"/>
<path d="M190.444 133.999H124.464V134.617H190.444V133.999Z" fill="#F2F2F2"/>
<path d="M190.444 136.778H124.464V137.395H190.444V136.778Z" fill="#F2F2F2"/>
<path d="M190.444 139.557H124.464V140.174H190.444V139.557Z" fill="#F2F2F2"/>
<path d="M190.444 142.335H124.464V142.953H190.444V142.335Z" fill="#F2F2F2"/>
<path d="M190.444 145.114H124.464V145.732H190.444V145.114Z" fill="#F2F2F2"/>
<path d="M190.444 147.893H124.464V148.51H190.444V147.893Z" fill="#F2F2F2"/>
<path d="M190.444 150.672H124.464V151.289H190.444V150.672Z" fill="#F2F2F2"/>
<path d="M190.444 153.45H124.464V154.068H190.444V153.45Z" fill="#F2F2F2"/>
<path d="M190.444 156.229H124.464V156.847H190.444V156.229Z" fill="#F2F2F2"/>
<path d="M190.444 159.008H124.464V159.626H190.444V159.008Z" fill="#F2F2F2"/>
<path d="M110.817 131.22H75.7278V131.838H110.817V131.22Z" fill="#F2F2F2"/>
<path d="M110.817 133.999H75.7278V134.617H110.817V133.999Z" fill="#F2F2F2"/>
<path d="M110.817 136.778H75.7278V137.395H110.817V136.778Z" fill="#F2F2F2"/>
<path d="M110.817 139.557H75.7278V140.174H110.817V139.557Z" fill="#F2F2F2"/>
<path d="M110.817 142.335H75.7278V142.953H110.817V142.335Z" fill="#F2F2F2"/>
<path d="M110.817 145.114H75.7278V145.732H110.817V145.114Z" fill="#F2F2F2"/>
<path d="M110.817 147.893H75.7278V148.51H110.817V147.893Z" fill="#F2F2F2"/>
<path d="M110.817 150.672H75.7278V151.289H110.817V150.672Z" fill="#F2F2F2"/>
<path d="M110.817 153.45H75.7278V154.068H110.817V153.45Z" fill="#F2F2F2"/>
<path d="M110.817 156.229H75.7278V156.847H110.817V156.229Z" fill="#F2F2F2"/>
<path d="M110.817 159.008H75.7278V159.626H110.817V159.008Z" fill="#F2F2F2"/>
<path d="M263.023 99.7274C276.439 99.7274 287.316 88.5304 287.316 74.7183C287.316 60.9062 276.439 49.7093 263.023 49.7093C249.606 49.7093 238.73 60.9062 238.73 74.7183C238.73 88.5304 249.606 99.7274 263.023 99.7274Z" fill="#419D78"/>
<path d="M278.318 72.2483H265.422V58.9719H260.624V72.2483H247.727V77.1884H260.624V90.4648H265.422V77.1884H278.318V72.2483Z" fill="white"/>
<path d="M292.564 31.3385C296.871 31.3385 300.362 27.7444 300.362 23.3109C300.362 18.8774 296.871 15.2833 292.564 15.2833C288.258 15.2833 284.767 18.8774 284.767 23.3109C284.767 27.7444 288.258 31.3385 292.564 31.3385Z" fill="#E1A7B0"/>
<path d="M289.865 29.1772C289.865 29.1772 291.065 35.3523 291.065 36.2785C291.065 37.2048 296.163 39.9836 296.163 39.9836L301.861 32.5735C301.861 32.5735 298.263 27.3247 298.263 26.0897L289.865 29.1772Z" fill="#E1A7B0"/>
<path d="M294.364 37.2048C294.364 37.2048 291.75 36.4885 290.957 35.3029C290.957 35.3029 282.667 43.6886 282.667 45.2324L289.265 57.2738C289.265 57.2738 289.265 61.5963 289.865 61.9051C290.465 62.2138 289.865 61.9051 289.865 63.1401C289.865 64.3751 288.066 72.4027 288.665 73.6377C289.265 74.8727 289.865 73.9464 289.265 75.799C288.665 77.6515 287.166 87.5316 287.166 87.5316C287.166 87.5316 292.564 85.6791 300.362 88.7666C308.16 91.8541 317.457 87.5316 317.457 87.5316C317.457 87.5316 315.058 81.974 315.657 80.1215C316.257 78.269 314.158 74.8727 314.158 74.8727L312.658 46.4674C312.658 46.4674 314.758 33.8085 313.258 33.191L310.259 31.956L300.655 30.7408C300.655 30.7408 298.263 36.896 294.364 37.2048Z" fill="#D0CDE1"/>
<path d="M285.666 43.0711L282.667 45.2324C282.667 45.2324 281.168 49.8637 282.667 52.025C284.167 54.1862 284.766 57.2738 284.766 57.2738L290.765 56.6563L285.666 43.0711Z" fill="#D0CDE1"/>
<path d="M307.86 45.8499C307.86 45.8499 306.123 50.4475 306.486 54.9963C306.552 55.8107 306.818 56.5944 307.26 57.2738L285.983 67.6729C285.983 67.6729 276.369 68.6976 278.768 73.0202C281.168 77.3427 289.865 70.8589 289.865 70.8589C289.865 70.8589 312.658 67.4626 314.458 64.0663C316.257 60.67 317.457 46.4674 317.457 46.4674L307.86 45.8499Z" fill="#E1A7B0"/>
<path d="M286.611 14.8271L285.258 14.2696C285.258 14.2696 288.086 11.0642 292.021 11.3429L290.914 10.0886C290.914 10.0886 293.62 8.97367 296.079 11.9004C297.372 13.4389 298.868 15.2473 299.8 17.2845H301.249L300.644 18.6549L302.76 20.0254L300.588 19.7792C300.794 20.9623 300.723 22.1789 300.383 23.3285L300.441 24.4117C300.441 24.4117 297.923 20.4018 297.923 19.8443V21.238C297.923 21.238 296.571 19.9837 296.571 19.1475L295.833 20.123L295.464 18.59L290.914 20.123L291.652 18.8687L288.824 19.2868L289.931 17.7538C289.931 17.7538 286.734 19.5656 286.611 21.0986C286.488 22.6317 284.889 24.5828 284.889 24.5828L284.151 23.1891C284.151 23.1891 283.045 16.9176 286.611 14.8271Z" fill="#2F2E41"/>
<path d="M308.759 33.191H313.258C313.258 33.191 316.557 33.8085 317.457 39.9836C318.357 46.1586 319.256 47.7024 318.357 47.7024C317.457 47.7024 306.66 47.3937 306.66 47.0849C306.66 46.7761 308.759 33.191 308.759 33.191Z" fill="#D0CDE1"/>
</g>
<defs>
<clipPath id="clip0_28_252">
<rect width="341" height="164" fill="white"/>
</clipPath>
</defs>
</svg>