<svg width="360" height="719" viewBox="0 0 360 719" fill="none" xmlns="http://www.w3.org/2000/svg">
<g clip-path="url(#clip0_83_4)">
<path d="M-125.272 160.455H247.092V20.8182C247.092 -30.5757 228.91 -74.4545 192.546 -110.818C156.183 -147.182 112.304 -165.364 60.91 -165.364C9.51605 -165.364 -34.3627 -147.182 -70.7264 -110.818C-107.09 -74.4545 -125.272 -30.5757 -125.272 20.8182V160.455ZM479.819 230.273V649.182C479.819 668.576 473.031 685.061 459.455 698.636C445.88 712.212 429.395 719 410.001 719H-288.181C-307.575 719 -324.06 712.212 -337.635 698.636C-351.211 685.061 -357.999 668.576 -357.999 649.182V230.273C-357.999 210.879 -351.211 194.394 -337.635 180.818C-324.06 167.242 -307.575 160.455 -288.181 160.455H-264.908V20.8182C-264.908 -68.3939 -232.908 -145 -168.908 -209C-104.908 -273 -28.3021 -305 60.91 -305C150.122 -305 226.728 -273 290.728 -209C354.728 -145 386.728 -68.3939 386.728 20.8182V160.455H410.001C429.395 160.455 445.88 167.242 459.455 180.818C473.031 194.394 479.819 210.879 479.819 230.273Z" fill="black"/>
</g>
<defs>
<clipPath id="clip0_83_4">
<rect width="837.82" height="1024" fill="white" transform="translate(-358 -305)"/>
</clipPath>
</defs>
</svg>
