<svg width="1024" height="1024" viewBox="0 0 1024 1024" fill="none" xmlns="http://www.w3.org/2000/svg">
<path d="M80.5888 270.643L464.589 476.928C477.491 483.84 494.182 487.117 510.976 487.117C527.77 487.117 544.461 483.84 557.363 476.928L941.363 270.643C966.4 257.178 990.054 204.8 944.128 204.8H77.8752C31.9488 204.8 55.6032 257.178 80.5888 270.643V270.643ZM952.986 383.437L557.363 589.619C539.955 598.733 527.77 599.808 510.976 599.808C494.182 599.808 481.997 598.733 464.589 589.619C447.181 580.506 99.3792 398.182 70.9632 383.386C50.9952 372.941 51.2 385.178 51.2 394.598V768C51.2 789.504 80.1792 819.2 102.4 819.2H921.6C943.821 819.2 972.8 789.504 972.8 768V394.65C972.8 385.229 973.005 372.992 952.986 383.437V383.437Z" fill="black"/>
</svg>
