<svg width="332" height="225" viewBox="0 0 332 225" fill="none" xmlns="http://www.w3.org/2000/svg">
<path d="M327.082 93H19.9177C18.6134 93 17.3626 93.5166 16.4404 94.436C15.5181 95.3555 15 96.6025 15 97.9029C15 99.2032 15.5181 100.45 16.4404 101.37C17.3626 102.289 18.6134 102.806 19.9177 102.806H28.6182V220.097C28.6182 221.397 29.1363 222.645 30.0585 223.564C30.9808 224.483 32.2316 225 33.5358 225C34.8401 225 36.0909 224.483 37.0132 223.564C37.9354 222.645 38.4535 221.397 38.4535 220.097L38.5282 102.806H285.059L307.79 220.097C307.79 221.397 308.308 222.645 309.23 223.564C310.153 224.483 311.403 225 312.708 225C314.012 225 315.263 224.483 316.185 223.564C317.107 222.645 317.625 221.397 317.625 220.097L319.056 102.806H327.082C328.387 102.806 329.637 102.289 330.56 101.37C331.482 100.45 332 99.2032 332 97.9029C332 96.6025 331.482 95.3555 330.56 94.436C329.637 93.5166 328.387 93 327.082 93Z" fill="#CCCCCC"/>
<path d="M74 71.0064V91.9937H21.7887C20.4203 92.0416 19.056 91.8176 17.7736 91.3346C16.4911 90.8515 15.3158 90.1188 14.3145 89.1783C13.3133 88.2378 12.5058 87.1078 11.9382 85.853C11.3706 84.5982 11.0539 83.2431 11.0063 81.8651C10.9587 80.487 11.1811 79.113 11.6607 77.8215C12.1404 76.53 12.868 75.3463 13.8019 74.338C14.7358 73.3297 15.8578 72.5165 17.1038 71.9448C18.3497 71.3732 19.6953 71.0543 21.0637 71.0064C21.3053 70.9979 21.5469 70.9979 21.7887 71.0064L74 71.0064Z" fill="#F2F2F2"/>
<path d="M74.9979 92.1971C74.9978 92.41 74.9139 92.6142 74.7645 92.7647C74.6151 92.9153 74.4126 92.9999 74.2013 93H20.9063C18.0131 92.998 15.239 91.8381 13.1939 89.7754C11.1488 87.7128 10 84.9161 10 82C10 79.084 11.1488 76.2872 13.1939 74.2245C15.239 72.1619 18.0131 71.002 20.9063 71H74.2013C74.3061 70.9997 74.4099 71.0203 74.5068 71.0605C74.6037 71.1008 74.6917 71.1599 74.7659 71.2344C74.8401 71.309 74.899 71.3976 74.9392 71.4952C74.9793 71.5927 75 71.6973 75 71.8029C75 71.9085 74.9793 72.0131 74.9392 72.1107C74.899 72.2082 74.8401 72.2968 74.7659 72.3714C74.6917 72.446 74.6037 72.5051 74.5068 72.5453C74.4099 72.5856 74.3061 72.6061 74.2013 72.6058H20.9063C18.4368 72.6096 16.0696 73.601 14.3247 75.3623C12.5798 77.1237 11.5997 79.511 11.5997 82C11.5997 84.489 12.5798 86.8763 14.3247 88.6377C16.0696 90.399 18.4368 91.3904 20.9063 91.3942H74.2013C74.4126 91.3942 74.6151 91.4789 74.7645 91.6294C74.9139 91.78 74.9978 91.9842 74.9979 92.1971Z" fill="#419D78"/>
<path d="M73.8397 76H17.1628C17.12 76.0007 17.0788 75.9489 17.0483 75.8561C17.0178 75.7632 17.0004 75.6368 17 75.5046C16.9996 75.3723 17.0162 75.245 17.0462 75.1504C17.0761 75.0558 17.117 75.0017 17.1598 75H73.8397C73.8824 75.0013 73.9231 75.0546 73.9531 75.1482C73.9831 75.2418 74 75.3682 74 75.5C74 75.6317 73.9831 75.7582 73.9531 75.8518C73.9231 75.9454 73.8824 75.9987 73.8397 76Z" fill="#CCCCCC"/>
<path d="M62 48.006V67.9939H11.4462C8.77039 68.0862 6.16722 67.1217 4.20932 65.3126C2.25143 63.5036 1.0992 60.9982 1.00611 58.3477C0.913021 55.6971 1.8867 53.1185 3.71294 51.1791C5.53919 49.2396 8.06841 48.0983 10.7442 48.006C10.9781 47.998 11.2121 47.998 11.4462 48.006H62Z" fill="#F2F2F2"/>
<path d="M63 68.1971C62.9999 68.41 62.9185 68.6142 62.7738 68.7647C62.629 68.9153 62.4327 68.9999 62.2279 69H10.5772C7.77196 69 5.0816 67.8411 3.09799 65.7782C1.11438 63.7153 0 60.9174 0 58C0 55.0826 1.11438 52.2847 3.09799 50.2218C5.0816 48.1589 7.77196 47 10.5772 47H62.2279C62.3293 47 62.4297 47.0208 62.5234 47.0611C62.6171 47.1015 62.7022 47.1606 62.7739 47.2352C62.8456 47.3097 62.9024 47.3982 62.9412 47.4957C62.98 47.5931 63 47.6975 63 47.8029C63 47.9084 62.98 48.0128 62.9412 48.1102C62.9024 48.2076 62.8456 48.2961 62.7739 48.3707C62.7022 48.4452 62.6171 48.5044 62.5234 48.5447C62.4297 48.5851 62.3293 48.6058 62.2279 48.6058H10.5772C8.18149 48.6058 5.88388 49.5956 4.18985 51.3573C2.49582 53.1191 1.54412 55.5085 1.54412 58C1.54412 60.4915 2.49582 62.8809 4.18985 64.6427C5.88388 66.4044 8.18149 67.3942 10.5772 67.3942H62.2279C62.4327 67.3943 62.629 67.4789 62.7738 67.6294C62.9185 67.78 62.9999 67.9842 63 68.1971Z" fill="#247E7E"/>
<path d="M61.8481 53H8.15425C8.11366 53.0007 8.07464 52.949 8.04574 52.8561C8.01683 52.7633 8.00038 52.6369 8.00001 52.5046C7.99963 52.3723 8.01536 52.245 8.04374 52.1504C8.07211 52.0558 8.11084 52.0017 8.15142 52H61.8481C61.8885 52.0013 61.9272 52.0546 61.9556 52.1482C61.984 52.2418 62 52.3682 62 52.5C62 52.6317 61.984 52.7582 61.9556 52.8518C61.9272 52.9454 61.8885 52.9987 61.8481 53Z" fill="#CCCCCC"/>
<path d="M61.8481 64H8.15425C8.11366 64.0007 8.07464 63.949 8.04574 63.8561C8.01683 63.7633 8.00038 63.6369 8.00001 63.5046C7.99963 63.3723 8.01536 63.245 8.04374 63.1504C8.07211 63.0558 8.11084 63.0017 8.15142 63H61.8481C61.8885 63.0013 61.9272 63.0546 61.9556 63.1482C61.984 63.2418 62 63.3683 62 63.5C62 63.6318 61.984 63.7582 61.9556 63.8518C61.9272 63.9454 61.8885 63.9987 61.8481 64Z" fill="#CCCCCC"/>
<path d="M125 166V148.857C125 148.099 124.676 147.373 124.101 146.837C123.525 146.301 122.744 146 121.929 146H52.0707C51.2563 146 50.4753 146.301 49.8994 146.837C49.3236 147.373 49 148.099 49 148.857V166H125Z" fill="#CCCCCC"/>
<path d="M125 173H49V197H125V173Z" fill="#CCCCCC"/>
<path d="M49 203V221.857C49 222.691 49.3236 223.49 49.8994 224.079C50.4753 224.669 51.2563 225 52.0707 225H121.929C122.744 225 123.525 224.669 124.101 224.079C124.676 223.49 125 222.691 125 221.857V203H49Z" fill="#CCCCCC"/>
<path d="M86 159C87.1046 159 88 158.105 88 157C88 155.895 87.1046 155 86 155C84.8954 155 84 155.895 84 157C84 158.105 84.8954 159 86 159Z" fill="white"/>
<path d="M86 189C87.1046 189 88 188.105 88 187C88 185.895 87.1046 185 86 185C84.8954 185 84 185.895 84 187C84 188.105 84.8954 189 86 189Z" fill="white"/>
<path d="M86.5 219C87.8807 219 89 218.105 89 217C89 215.895 87.8807 215 86.5 215C85.1193 215 84 215.895 84 217C84 218.105 85.1193 219 86.5 219Z" fill="white"/>
<path d="M116 125.006V145.994H63.7828C61.0202 146.089 58.3332 145.075 56.3124 143.176C54.2917 141.277 53.1025 138.647 53.0063 135.865C52.9101 133.083 53.9148 130.377 55.7994 128.341C57.6841 126.305 60.2946 125.105 63.0571 125.006C63.2989 124.998 63.5408 124.998 63.7828 125.006H116Z" fill="#F2F2F2"/>
<path d="M116.998 146.161C116.998 146.383 116.914 146.597 116.765 146.754C116.615 146.911 116.413 147 116.201 147H62.9149C60.0215 147.001 57.2462 145.79 55.1994 143.635C53.1526 141.48 52.0017 138.556 52 135.507C51.9983 132.458 53.1457 129.532 55.1901 127.375C57.2345 125.217 60.0083 124.003 62.9018 124H116.201C116.306 124 116.41 124.021 116.507 124.063C116.604 124.105 116.692 124.167 116.766 124.245C116.84 124.323 116.899 124.416 116.939 124.518C116.979 124.62 117 124.729 117 124.839C117 124.95 116.979 125.059 116.939 125.161C116.899 125.263 116.84 125.356 116.766 125.434C116.692 125.512 116.604 125.574 116.507 125.616C116.41 125.658 116.306 125.679 116.201 125.679H62.9149C60.4454 125.682 58.0782 126.718 56.3331 128.56C54.5881 130.401 53.6079 132.897 53.6079 135.5C53.6079 138.102 54.5881 140.599 56.3331 142.44C58.0782 144.282 60.4454 145.318 62.9149 145.321H116.201C116.413 145.321 116.615 145.41 116.765 145.567C116.914 145.725 116.998 145.938 116.998 146.161Z" fill="#247E7E"/>
<path d="M115.842 130H60.1599C60.1179 130.001 60.0774 129.949 60.0474 129.856C60.0174 129.763 60.0004 129.637 60 129.505C59.9996 129.372 60.0159 129.245 60.0453 129.15C60.0748 129.056 60.1149 129.002 60.157 129H115.843C115.884 129.001 115.924 129.055 115.954 129.148C115.983 129.242 116 129.368 116 129.5C116 129.632 115.983 129.758 115.954 129.852C115.924 129.945 115.884 129.999 115.843 130H115.842Z" fill="#CCCCCC"/>
<path d="M115.842 141H60.1599C60.1179 141.001 60.0774 140.949 60.0474 140.856C60.0174 140.763 60.0004 140.637 60 140.505C59.9996 140.372 60.0159 140.245 60.0453 140.15C60.0748 140.056 60.1149 140.002 60.157 140H115.843C115.884 140.001 115.924 140.055 115.954 140.148C115.983 140.242 116 140.368 116 140.5C116 140.632 115.983 140.758 115.954 140.852C115.924 140.945 115.884 140.999 115.843 141H115.842Z" fill="#CCCCCC"/>
<path d="M53.6998 41.002H30.2247C30.002 41.0018 29.7821 41.0516 29.5823 41.1474L23.6574 44.0332C23.4624 44.1138 23.2961 44.2485 23.1792 44.4204C23.0623 44.5923 23 44.7939 23 45C23 45.2061 23.0623 45.4077 23.1792 45.5796C23.2961 45.7515 23.4624 45.8861 23.6574 45.9668L29.5823 48.8526C29.7821 48.9484 30.002 48.9982 30.2247 48.998H53.6998C54.0233 49.0162 54.3412 48.9097 54.5845 48.7015C54.8279 48.4933 54.9771 48.2003 55 47.8858V42.1142C54.9771 41.7997 54.8279 41.5066 54.5845 41.2985C54.3412 41.0903 54.0233 40.9838 53.6998 41.002Z" fill="#3F3D56"/>
<path d="M55 42.1142V47.8858C54.9771 48.2003 54.8272 48.4934 54.5829 48.7015C54.3386 48.9097 54.0196 49.0162 53.6948 48.998H49V41.002H53.6948C54.0196 40.9838 54.3386 41.0903 54.5829 41.2985C54.8272 41.5066 54.9771 41.7997 55 42.1142Z" fill="#419D78"/>
<path d="M189.673 92.9518L187.154 91.8708L185.427 79H162.421L160.549 91.8182L158.296 92.9667C158.188 93.0216 158.101 93.1121 158.05 93.2234C157.999 93.3347 157.987 93.4603 158.014 93.5799C158.042 93.6995 158.108 93.806 158.203 93.8823C158.297 93.9585 158.415 94 158.535 94H189.465C189.588 94 189.708 93.9564 189.804 93.8767C189.899 93.7969 189.965 93.6859 189.989 93.5625C190.014 93.4391 189.996 93.3108 189.938 93.1995C189.88 93.0882 189.786 93.0007 189.673 92.9518Z" fill="#E6E6E6"/>
<path d="M229.775 81H117.225C116.634 80.9987 116.068 80.7645 115.651 80.3488C115.234 79.9331 115 79.3698 115 78.7826V63H232V78.7826C232 79.3698 231.766 79.9331 231.349 80.3488C230.932 80.7645 230.366 80.9987 229.775 81Z" fill="#CCCCCC"/>
<path d="M232 70H115V2.66528C115.001 1.95864 115.284 1.28117 115.787 0.781512C116.29 0.281851 116.972 0.000790685 117.683 0H229.317C230.028 0.000790672 230.71 0.281851 231.213 0.781512C231.716 1.28117 231.999 1.95863 232 2.66528L232 70Z" fill="#3F3D56"/>
<path d="M224.915 65H121.085C120.532 64.9994 120.002 64.7799 119.611 64.3898C119.22 63.9996 119.001 63.4706 119 62.9188V6.08129C119.001 5.5295 119.22 5.00048 119.611 4.61029C120.002 4.22011 120.532 4.00063 121.085 4H224.915C225.468 4.00063 225.998 4.22011 226.389 4.61029C226.78 5.00048 226.999 5.5295 227 6.08129V62.9188C226.999 63.4706 226.78 63.9996 226.389 64.3898C225.998 64.7799 225.468 64.9994 224.915 65Z" fill="white"/>
<path d="M198.035 85.5816C198.701 84.9905 199.494 84.5469 200.358 84.2821C201.222 84.0172 202.135 83.9376 203.035 84.0487C203.934 84.1598 204.797 84.4591 205.563 84.9253C206.329 85.3916 206.979 86.0135 207.468 86.7473L221.424 84.3637L225 92.1577L205.243 95.2579C203.905 95.9649 202.344 96.176 200.855 95.8512C199.366 95.5264 198.053 94.6882 197.165 93.4955C196.276 92.3027 195.874 90.8383 196.034 89.3797C196.195 87.9212 196.906 86.5697 198.035 85.5816Z" fill="#FFB6B6"/>
<path d="M211 96L225.542 95.8195L227.383 95.7947L256.97 95.4234C256.97 95.4234 265.004 87.79 272 79.9308L271.019 72.8675C270.063 65.9356 266.61 59.5859 261.303 55C251.283 61.6677 245.473 74.8657 245.473 74.8657L227.128 79.2353L225.293 79.6724L213.894 82.385L211 96Z" fill="#419D78"/>
<path d="M285.549 139H258.623C258.623 140.176 229.189 141.13 229.189 141.13C228.54 141.628 227.948 142.199 227.425 142.833C225.854 144.743 224.995 147.156 225 149.648V151.352C225.001 154.176 226.102 156.883 228.062 158.88C230.022 160.877 232.679 161.999 235.451 162H285.549C288.32 161.998 290.977 160.875 292.936 158.879C294.896 156.882 295.998 154.175 296 151.352V149.648C295.996 146.825 294.894 144.119 292.935 142.123C290.976 140.127 288.32 139.004 285.549 139Z" fill="#E4E4E4"/>
<path d="M266 161H255V225H266V161Z" fill="#E4E4E4"/>
<path d="M224 224.337C224 225.494 240.565 224.785 261 224.785C281.435 224.785 298 225.494 298 224.337C298 223.179 281.435 214 261 214C240.565 214 224 223.179 224 224.337Z" fill="#E4E4E4"/>
<path d="M215.999 217L207.868 216.999L204 186L216 186.001L215.999 217Z" fill="#FFB6B6"/>
<path d="M218 225L192 224.999V224.684C192 222.116 193.066 219.653 194.964 217.837C196.862 216.02 199.436 215 202.12 215H202.12L218 215.001L218 225Z" fill="#2F2E41"/>
<path d="M191.999 217L183.868 216.999L180 186L192 186.001L191.999 217Z" fill="#FFB6B6"/>
<path d="M194 225L168 224.999V224.684C168 222.116 169.066 219.653 170.964 217.837C172.862 216.02 175.436 215 178.12 215H178.12L194 215.001L194 225Z" fill="#2F2E41"/>
<path d="M264.5 36C272.508 36 279 29.5081 279 21.5C279 13.4919 272.508 7 264.5 7C256.492 7 250 13.4919 250 21.5C250 29.5081 256.492 36 264.5 36Z" fill="#FFB6B6"/>
<path d="M288.433 119.447C288.433 119.447 293.21 144.317 275.033 147.484C256.855 150.651 230.615 152.877 230.615 152.877L218.831 207L203 205.609C203 205.609 205.105 140.457 210.283 135.36C215.461 130.262 248.186 115 248.186 115L288.433 119.447Z" fill="#2F2E41"/>
<path d="M252.808 108L244.863 115.973C244.863 115.973 187.5 125.217 185.287 138.472C181.946 158.483 178 202 178 202L195.247 200.706L202.01 151.239L229.605 144.96L261 127.842L252.808 108Z" fill="#2F2E41"/>
<path d="M278.741 13.4974C277.311 10.7836 275.493 5.37513 272.605 4.37206C271.001 3.83748 269.344 3.48251 267.662 3.31359L262.754 5.21148L265.425 3.12275C264.905 3.0916 264.385 3.06614 263.866 3.04636L260.554 4.32687L262.248 3.00205C259.161 2.97019 255.974 3.29293 253.581 5.18249C251.542 6.79334 249.521 12.8956 249.194 15.4822C248.845 17.9566 248.967 20.4753 249.555 22.9038L250.393 23.7056C250.687 23.0293 250.907 22.3234 251.051 21.5999C251.352 20.2482 251.93 18.9742 252.747 17.8592C253.565 16.7442 254.604 15.8127 255.8 15.124L255.845 15.0981C257.252 14.3022 258.959 14.3389 260.572 14.3973L268.233 14.6744C270.077 14.7411 272.062 14.8583 273.499 16.0207C274.412 16.8781 275.13 17.924 275.604 19.0865C276.318 20.5353 277.713 26 277.713 26C277.713 26 278.503 24.9685 278.881 25.7362C279.488 23.7331 279.857 21.6648 279.98 19.5745C280.101 17.4749 279.674 15.3801 278.741 13.4974Z" fill="#2F2E41"/>
<path d="M318.513 27.0161C317.635 27.075 316.781 27.3292 316.01 27.7608C315.239 28.1925 314.57 28.791 314.051 29.5144C313.532 30.2377 313.174 31.0682 313.004 31.9474C312.834 32.8266 312.855 33.7331 313.067 34.603L302 42.9177L305.321 51L320.787 39.0344C322.198 38.5764 323.395 37.6069 324.152 36.3098C324.908 35.0127 325.171 33.478 324.891 31.9966C324.61 30.5152 323.806 29.19 322.631 28.272C321.456 27.3541 319.99 26.9072 318.513 27.0161Z" fill="#FFB6B6"/>
<path d="M317 44.3182L289.386 75C289.386 75 276.18 70.7707 265.967 66.1855L261.379 52.0876C260.314 48.817 259.859 45.3782 260.038 41.943C274.196 38.174 290.663 52.1981 290.663 52.1981L311.334 36L317 44.3182Z" fill="#419D78"/>
<path d="M259.657 121.212C254.447 119.455 249.06 117.638 243.25 116.956L243 116.927L243.069 116.691C249.084 96.0741 247.583 82.8856 244.635 63.0746C244.008 58.8014 244.814 54.4448 246.931 50.6552C249.049 46.8656 252.365 43.8461 256.385 42.0474L256.421 42.0317L273.016 41.0022L273.054 41L285.124 44.4653C286.86 44.9675 288.38 46.0116 289.45 47.4375C290.521 48.8635 291.083 50.5927 291.05 52.3602C290.919 58.8754 291.196 66.1495 291.49 73.8504C292.149 91.1271 292.83 108.992 288.965 120.583L288.945 120.644L288.893 120.684C285.34 123.508 280.889 125.035 276.307 124.999C270.89 124.999 265.361 123.135 259.657 121.212Z" fill="#419D78"/>
</svg>
